<svg xmlns="http://www.w3.org/2000/svg" viewBox="0 0 208.859 213.529"><defs><style>.a{fill:#fff;}.b{fill:none;stroke-linecap:round;stroke-linejoin:round;}.c{fill:#1b75bc;}.d,.e{stroke:none;}.e{fill:#1b75bc;}</style></defs><g transform="translate(-91 -200)"><path class="a" d="M45.312,148.223A99.942,99.942,0,1,1,85.5,188.052L24.078,213.529Z" transform="translate(66.922 200)"/><g class="b" transform="translate(73.922 207)"><path class="d" d="M43.889,138.505a93.216,93.216,0,1,1,37.491,37.217l-57.3,23.806Z"/><path class="e" d="M 35.4292106628418 187.2324829101563 L 78.69354248046875 169.2581329345703 C 79.55532836914063 168.9001007080078 80.4681396484375 168.7224578857422 81.37892913818359 168.7224578857422 C 82.52781677246094 168.7224578857422 83.67344665527344 169.0051879882813 84.70890808105469 169.5651397705078 C 97.19564056396484 176.3176422119141 111.3495101928711 179.8868103027344 125.6402740478516 179.8868103027344 C 173.2245025634766 179.8868103027344 211.9371032714844 141.1084747314453 211.9371032714844 93.44340515136719 C 211.9371032714844 45.77833938598633 173.2245025634766 7.00000524520874 125.6402740478516 7.00000524520874 C 78.05603790283203 7.00000524520874 39.34344100952148 45.77833938598633 39.34344100952148 93.44340515136719 C 39.34344100952148 108.0282363891602 43.03554153442383 122.4428405761719 50.02054214477539 135.1288757324219 C 50.95327377319336 136.8229064941406 51.14367294311523 138.8273010253906 50.54654312133789 140.6666412353516 L 35.4292106628418 187.2324829101563 M 24.07770729064941 199.5286102294922 L 43.88860702514648 138.5051727294922 C 36.53130722045898 125.1430053710938 32.34344100952148 109.7817687988281 32.34344100952148 93.44340515136719 C 32.34344100952148 41.83597183227539 74.11377716064453 5.114746272738557e-06 125.6402740478516 5.114746272738557e-06 C 177.1667785644531 5.114746272738557e-06 218.9371032714844 41.83597183227539 218.9371032714844 93.44340515136719 C 218.9371032714844 145.0508728027344 177.1667785644531 186.8868103027344 125.6402740478516 186.8868103027344 C 109.6231384277344 186.8868103027344 94.54920959472656 182.8444671630859 81.37917327880859 175.7224731445313 L 24.07770729064941 199.5286102294922 Z"/></g><path class="c" d="M0,0H24V57L0,51Z" transform="translate(156 329)"/><circle class="c" cx="13.5" cy="13.5" r="13.5" transform="translate(154 296)"/><rect class="c" width="24" height="78" transform="translate(194 313)"/><circle class="c" cx="13.5" cy="13.5" r="13.5" transform="translate(192 279)"/><path class="c" d="M0,0H24V74L0,89Z" transform="translate(232 296)"/><circle class="c" cx="13.5" cy="13.5" r="13.5" transform="translate(230 262)"/></g></svg>